<svg xmlns="http://www.w3.org/2000/svg" width="64" height="64" viewBox="173.5 389 64 64">
    <g fill="#2ac976" stroke="#2ac976" stroke-width="2" stroke-linejoin="round">
        <path d="M215.01 423.52s-.006-6.662-6.5-6.726c0 0 .106 6.714 6.5 6.726z"/>
        <path d="M215.01 432.984v-9.471s.162-9.541 9.075-9.456c0 0-.416 9.52-9.075 9.456"/>
    </g>
    <path fill="#795f00" d="M182.745 431.277h13.402v3.414h-13.402c-.585-.007-1.163-.188-1.553-.471-.399-.289-.671-.769-.692-1.237.021-.468.293-.947.692-1.237.39-.283.968-.464 1.553-.471z"/>
    <path fill="#795f00" d="M228.255 431.277c.585.007 1.163.188 1.553.471.399.289.692.769.692 1.237s-.293.947-.692 1.237c-.39.283-.968.464-1.553.471h-30.254v-3.414z"/>
    <path fill="#687dff" d="M192.527 422.417v-3.519c0-1.249 1.26-2.346 2.813-2.346 1.258 0 2.813 1.085 2.813 2.346v3.519 3.519c0 1.261-1.555 2.346-2.813 2.346-1.554 0-2.813-1.097-2.813-2.346z"/>
    <g fill-opacity="0" stroke="#687dff" stroke-width="2" stroke-linecap="round">
        <path d="M189.372 411.481c1.527-1.592 3.638-2.576 5.968-2.576s4.441.985 5.968 2.576m-14.921-3.11c2.291-2.388 5.456-3.865 8.952-3.865s6.661 1.477 8.952 3.865m-11.937 6.22c.764-.796 1.819-1.288 2.984-1.288s2.22.492 2.984 1.288"/>
        <path d="M202.093 437.494h-4.751-.594c-.777 0-1.407-.533-1.407-1.191v-8.338"/>        
    </g>
</svg>